<svg width="19" height="18" viewBox="0 0 19 18" fill="none" xmlns="http://www.w3.org/2000/svg">
<path d="M9.03167 1.25247C9.19364 0.819299 9.80636 0.819299 9.96833 1.25247L11.8528 6.29217C11.9231 6.48009 12.0989 6.60782 12.2993 6.61657L17.6747 6.85146C18.1367 6.87165 18.326 7.45437 17.9641 7.74227L13.7534 11.0919C13.5964 11.2168 13.5293 11.4234 13.5829 11.6168L15.0206 16.8016C15.1441 17.2473 14.6484 17.6074 14.2628 17.3522L9.77595 14.3826C9.60865 14.2719 9.39135 14.2719 9.22405 14.3826L4.73722 17.3522C4.35157 17.6074 3.85587 17.2473 3.97944 16.8016L5.41714 11.6168C5.47075 11.4234 5.4036 11.2168 5.24659 11.0919L1.03589 7.74227C0.673966 7.45437 0.863304 6.87165 1.32533 6.85146L6.7007 6.61657C6.90114 6.60782 7.07693 6.48009 7.1472 6.29217L9.03167 1.25247Z" fill="#FFD700"/>
</svg>
